# xmcd
#
# Track frame offsets:
# 150
# 16075
# 30156
# 45762
# 66723
# 81257
# 97646
# 112019
# 130490
# 147278
# 164450
# 178129
# 194987
# 214497
# 230590
#
# Disc length: 3232 seconds
#
#
# Revision: 0
# Processed by: cddbd v1.5.1PL2 Copyright (c) Steve Scherf et al.
# Submitted via: FreeRIP 2.945 
#
DISCID=d60c9e0f
DTITLE=Luan e Luciano - Conquistando o Brasil
DYEAR=1900
DGENRE=Ballad
TTITLE0=LUAN E LUCIANO - MULHER OIADA E CERVEJA
TTITLE1=LUAN E LUCIANO -  REMEDIO DA PAIXAO
TTITLE2=LUAN E LUCIANO - DOENTE DE PAIXAO
TTITLE3=LUAN E LUCIANO - JOGAR O JOGO
TTITLE4=LUAN E LUCIANO - CERVEJA NO GOGÓ
TTITLE5=LUAN E LUCIANO -  MULHER MANDONA
TTITLE6=LUAN E LUCIANO - CHEGA O REIO
TTITLE7=LUAN E LUCIANO - NAO TEM MAIS CAMA VAZIA
TTITLE8=LUAN E LUCIANO - O GRITO DA MULHERADA
TTITLE9=LUAN E LUCIANO - O BICHO PEGA
TTITLE10=LUAN E LUCIANO - ARENA DA PAIXAO
TTITLE11=LUAN E LUCIANO - PUXA O FOLE SANFONEIRO
TTITLE12=LUAN E LUCIANO - AMOR DE LOTERIA
TTITLE13=LUAN E LUCIANO - PINGUELA DELA
TTITLE14=LUAN E LUCIANO - TCHAL GALERA
EXTD=
EXTT0=
EXTT1=
EXTT2=
EXTT3=
EXTT4=
EXTT5=
EXTT6=
EXTT7=
EXTT8=
EXTT9=
EXTT10=
EXTT11=
EXTT12=
EXTT13=
EXTT14=
PLAYORDER=
